<svg height="0" version="1.1" viewbox="0 0 40 40" width="0" xmlns="http://www.w3.org/2000/svg">
<symbol id="icon-90b" viewbox="0 0 40 40">
	<path d="M12.1,13.8v19.1H5.7V13.8C5.7,13.8,12.1,13.8,12.1,13.8z M12.5,7.9c0,0.9-0.3,1.7-1,2.4c-0.7,0.6-1.5,0.9-2.6,0.9h0 c-1.1,0-1.9-0.3-2.5-0.9c-0.6-0.6-1-1.4-1-2.4c0-1,0.3-1.7,1-2.4S7.9,4.6,9,4.6s1.9,0.3,2.6,0.9S12.5,6.9,12.5,7.9z M35,22v11h-6.4 V22.7c0-1.4-0.3-2.4-0.8-3.2c-0.5-0.8-1.3-1.1-2.4-1.1c-0.8,0-1.5,0.2-2,0.7c-0.5,0.4-1,1-1.2,1.7c-0.1,0.4-0.2,0.9-0.2,1.6v10.7 h-6.4c0-5.1,0-9.3,0-12.5s0-5.1,0-5.7l0-0.9H22v2.8h0c0.3-0.4,0.5-0.8,0.8-1.1c0.3-0.3,0.6-0.6,1.1-1c0.5-0.4,1-0.6,1.7-0.8 c0.7-0.2,1.4-0.3,2.2-0.3c2.2,0,4,0.7,5.3,2.2C34.4,17,35,19.1,35,22L35,22z"></path>
</symbol>
<symbol id="icon-935" viewbox="0 0 40 40">
	<path d="M14.4,11.2V33c0,0.3-0.1,0.6-0.2,0.8c-0.2,0.2-0.4,0.3-0.7,0.3c-0.2,0-0.4,0-0.6-0.1l-8.6-4.3C4,29.5,3.8,29.3,3.6,29 c-0.2-0.3-0.3-0.6-0.3-0.9V6.9c0-0.2,0.1-0.5,0.2-0.6s0.3-0.3,0.5-0.3c0.2,0,0.4,0.1,0.8,0.3L14.4,11.2 C14.4,11.1,14.4,11.2,14.4,11.2L14.4,11.2z M15.6,13.1l9.9,16.1l-9.9-4.9V13.1z M36.6,13.4V33c0,0.3-0.1,0.6-0.3,0.8S36,34,35.7,34 c-0.3,0-0.6-0.1-0.9-0.2l-8.2-4.1L36.6,13.4z M36.6,11.2c0,0-1.6,2.6-4.8,7.8s-5,8.2-5.6,9.1L19,16.2l6-9.8c0.2-0.3,0.5-0.5,1-0.5 c0.2,0,0.3,0,0.5,0.1l10,5C36.6,11.1,36.6,11.1,36.6,11.2L36.6,11.2z"></path>
</symbol>
<symbol id="icon-905" viewbox="0 0 40 40">
	<path d="M36.3,10.2c-1,1.3-2.1,2.5-3.4,3.5c0,0.2,0,0.4,0,1c0,1.7-0.2,3.6-0.9,5.3c-0.6,1.7-1.2,3.5-2.4,5.1 c-1.1,1.5-2.3,3.1-3.7,4.3c-1.4,1.2-3.3,2.3-5.3,3c-2.1,0.8-4.2,1.2-6.6,1.2c-3.6,0-7-1-10.2-3c0.4,0,1.1,0.1,1.5,0.1 c3.1,0,5.9-1,8.2-2.9c-1.4,0-2.7-0.4-3.8-1.3c-1.2-1-1.9-2-2.2-3.3c0.4,0.1,1,0.1,1.2,0.1c0.6,0,1.2-0.1,1.7-0.2 c-1.4-0.3-2.7-1.1-3.7-2.3s-1.4-2.6-1.4-4.2v-0.1c1,0.6,2,0.9,3,0.9c-1-0.6-1.5-1.3-2.2-2.4c-0.6-1-0.9-2.1-0.9-3.3s0.3-2.3,1-3.4 c1.5,2.1,3.6,3.6,6,4.9s4.9,2,7.6,2.1c-0.1-0.6-0.1-1.1-0.1-1.4c0-1.8,0.8-3.5,2-4.7c1.2-1.2,2.9-2,4.7-2c2,0,3.6,0.8,4.8,2.1 c1.4-0.3,2.9-0.9,4.2-1.5c-0.4,1.5-1.4,2.7-2.9,3.6C33.8,11.2,35.1,10.9,36.3,10.2L36.3,10.2z"></path>
</symbol></svg>